<svg width="402" height="71" viewBox="0 0 402 71" fill="none" xmlns="http://www.w3.org/2000/svg">
<path d="M108.884 53.7845L112.95 43.3923H129.707L133.773 53.7845H138.883L124.268 15.2946H118.609L103.939 53.7845H108.884ZM121.301 20.5183L128.279 39.0484H114.378L121.301 20.5183Z" fill="white"/>
<path d="M142.479 44.547C142.589 50.7053 147.589 54.1145 154.842 54.1145C161.05 54.1145 166.05 50.8703 166.05 45.6467C166.05 39.4333 160.94 38.2236 154.567 37.4538C150.501 36.959 147.534 36.5741 147.534 33.4949C147.534 30.9105 150.171 29.261 154.072 29.261C157.918 29.261 160.556 31.4054 160.885 34.2647H165.5C165.061 28.4362 160.446 25.467 154.072 25.412C147.754 25.357 143.084 28.7111 143.084 33.8248C143.084 39.6532 148.084 40.9179 154.347 41.6877C158.523 42.1826 161.6 42.4575 161.6 45.9766C161.6 48.5609 158.797 50.2655 154.842 50.2655C150.171 50.2655 147.259 47.8461 147.095 44.547H142.479Z" fill="white"/>
<path d="M171.009 44.547C171.119 50.7053 176.119 54.1145 183.371 54.1145C189.58 54.1145 194.58 50.8703 194.58 45.6467C194.58 39.4333 189.47 38.2236 183.096 37.4538C179.031 36.959 176.064 36.5741 176.064 33.4949C176.064 30.9105 178.701 29.261 182.602 29.261C186.448 29.261 189.085 31.4054 189.415 34.2647H194.03C193.591 28.4362 188.975 25.467 182.602 25.412C176.283 25.357 171.613 28.7111 171.613 33.8248C171.613 39.6532 176.613 40.9179 182.877 41.6877C187.052 42.1826 190.129 42.4575 190.129 45.9766C190.129 48.5609 187.327 50.2655 183.371 50.2655C178.701 50.2655 175.789 47.8461 175.624 44.547H171.009Z" fill="white"/>
<path d="M214.141 54.1145C220.624 54.1145 225.239 49.9905 226.338 44.382H221.778C220.844 48.0111 217.767 50.1005 213.811 50.1005C208.481 50.1005 205.13 46.3615 204.965 41.0279V40.643H226.722C226.777 39.9832 226.832 39.3233 226.832 38.7185C226.613 30.4157 221.448 25.412 213.536 25.412C205.624 25.412 200.24 31.2405 200.24 39.7632C200.24 48.341 205.734 54.1145 214.141 54.1145ZM205.24 36.904C205.679 32.3402 209.47 29.3709 213.591 29.3709C218.261 29.3709 221.558 32.0652 221.997 36.904H205.24Z" fill="white"/>
<path d="M264.884 25.412C259.884 25.412 256.863 27.7214 255.159 30.7456C253.566 27.1715 250.214 25.412 246.314 25.412C241.973 25.412 239.61 27.5564 238.127 29.5909L237.523 25.7419H233.622V53.7845H238.127V38.9934C238.127 33.3849 240.929 29.5359 245.544 29.5359C249.83 29.5359 252.302 32.3952 252.302 37.8937V53.7845H256.808V38.7735C256.808 33.055 259.665 29.5359 264.335 29.5359C268.565 29.5359 270.983 32.3952 270.983 37.8937V53.7845H275.488V37.6188C275.488 28.7661 270.708 25.412 264.884 25.412Z" fill="white"/>
<path d="M297.036 25.412C292.311 25.412 289.289 27.6664 287.421 30.2507V15.2946H282.916V53.7845H286.817L287.421 49.4957C289.124 52.19 292.311 54.1145 297.036 54.1145C304.783 54.1145 310.497 48.341 310.497 39.7632C310.497 30.6356 304.783 25.412 297.036 25.412ZM296.597 50.1005C291.102 50.1005 287.366 45.8116 287.366 39.6532C287.366 33.6598 291.102 29.4259 296.597 29.4259C302.146 29.4259 305.882 33.6598 305.882 39.7632C305.882 45.8666 302.146 50.1005 296.597 50.1005Z" fill="white"/>
<path d="M317.294 53.7845H321.799V15.2946H317.294V53.7845Z" fill="white"/>
<path d="M337.751 53.9495L336.378 57.3586C335.334 59.9979 334.894 60.6577 332.312 60.6577H328.301V64.7817H333.685C337.641 64.7817 338.685 63.0221 340.443 58.5133L353.355 25.7419H348.575L340.224 48.121L331.598 25.7419H326.818L337.751 53.9495Z" fill="white"/>
<path d="M359.763 53.7845L363.829 43.3923H380.587L384.652 53.7845H389.762L375.147 15.2946H369.488L354.818 53.7845H359.763ZM372.18 20.5183L379.158 39.0484H365.257L372.18 20.5183Z" fill="white"/>
<path d="M395.762 53.7845H400.542V15.2946H395.762V53.7845Z" fill="white"/>
<path d="M108.884 53.7845L112.95 43.3923H129.707L133.773 53.7845H138.883L124.268 15.2946H118.609L103.939 53.7845H108.884ZM121.301 20.5183L128.279 39.0484H114.378L121.301 20.5183Z" stroke="white"/>
<path d="M142.479 44.547C142.589 50.7053 147.589 54.1145 154.842 54.1145C161.05 54.1145 166.05 50.8703 166.05 45.6467C166.05 39.4333 160.94 38.2236 154.567 37.4538C150.501 36.959 147.534 36.5741 147.534 33.4949C147.534 30.9105 150.171 29.261 154.072 29.261C157.918 29.261 160.556 31.4054 160.885 34.2647H165.5C165.061 28.4362 160.446 25.467 154.072 25.412C147.754 25.357 143.084 28.7111 143.084 33.8248C143.084 39.6532 148.084 40.9179 154.347 41.6877C158.523 42.1826 161.6 42.4575 161.6 45.9766C161.6 48.5609 158.797 50.2655 154.842 50.2655C150.171 50.2655 147.259 47.8461 147.095 44.547H142.479Z" stroke="white"/>
<path d="M171.009 44.547C171.119 50.7053 176.119 54.1145 183.371 54.1145C189.58 54.1145 194.58 50.8703 194.58 45.6467C194.58 39.4333 189.47 38.2236 183.096 37.4538C179.031 36.959 176.064 36.5741 176.064 33.4949C176.064 30.9105 178.701 29.261 182.602 29.261C186.448 29.261 189.085 31.4054 189.415 34.2647H194.03C193.591 28.4362 188.975 25.467 182.602 25.412C176.283 25.357 171.613 28.7111 171.613 33.8248C171.613 39.6532 176.613 40.9179 182.877 41.6877C187.052 42.1826 190.129 42.4575 190.129 45.9766C190.129 48.5609 187.327 50.2655 183.371 50.2655C178.701 50.2655 175.789 47.8461 175.624 44.547H171.009Z" stroke="white"/>
<path d="M214.141 54.1145C220.624 54.1145 225.239 49.9905 226.338 44.382H221.778C220.844 48.0111 217.767 50.1005 213.811 50.1005C208.481 50.1005 205.13 46.3615 204.965 41.0279V40.643H226.722C226.777 39.9832 226.832 39.3233 226.832 38.7185C226.613 30.4157 221.448 25.412 213.536 25.412C205.624 25.412 200.24 31.2405 200.24 39.7632C200.24 48.341 205.734 54.1145 214.141 54.1145ZM205.24 36.904C205.679 32.3402 209.47 29.3709 213.591 29.3709C218.261 29.3709 221.558 32.0652 221.997 36.904H205.24Z" stroke="white"/>
<path d="M264.884 25.412C259.884 25.412 256.863 27.7214 255.159 30.7456C253.566 27.1715 250.214 25.412 246.314 25.412C241.973 25.412 239.61 27.5564 238.127 29.5909L237.523 25.7419H233.622V53.7845H238.127V38.9934C238.127 33.3849 240.929 29.5359 245.544 29.5359C249.83 29.5359 252.302 32.3952 252.302 37.8937V53.7845H256.808V38.7735C256.808 33.055 259.665 29.5359 264.335 29.5359C268.565 29.5359 270.983 32.3952 270.983 37.8937V53.7845H275.488V37.6188C275.488 28.7661 270.708 25.412 264.884 25.412Z" stroke="white"/>
<path d="M297.036 25.412C292.311 25.412 289.289 27.6664 287.421 30.2507V15.2946H282.916V53.7845H286.817L287.421 49.4957C289.124 52.19 292.311 54.1145 297.036 54.1145C304.783 54.1145 310.497 48.341 310.497 39.7632C310.497 30.6356 304.783 25.412 297.036 25.412ZM296.597 50.1005C291.102 50.1005 287.366 45.8116 287.366 39.6532C287.366 33.6598 291.102 29.4259 296.597 29.4259C302.146 29.4259 305.882 33.6598 305.882 39.7632C305.882 45.8666 302.146 50.1005 296.597 50.1005Z" stroke="white"/>
<path d="M317.294 53.7845H321.799V15.2946H317.294V53.7845Z" stroke="white"/>
<path d="M337.751 53.9495L336.378 57.3586C335.334 59.9979 334.894 60.6577 332.312 60.6577H328.301V64.7817H333.685C337.641 64.7817 338.685 63.0221 340.443 58.5133L353.355 25.7419H348.575L340.224 48.121L331.598 25.7419H326.818L337.751 53.9495Z" stroke="white"/>
<path d="M359.763 53.7845L363.829 43.3923H380.587L384.652 53.7845H389.762L375.147 15.2946H369.488L354.818 53.7845H359.763ZM372.18 20.5183L379.158 39.0484H365.257L372.18 20.5183Z" stroke="white"/>
<path d="M395.762 53.7845H400.542V15.2946H395.762V53.7845Z" stroke="white"/>
<path d="M36.1992 0.837013C31.0677 0.837013 26.4633 3.99159 24.6067 8.77916L0.541992 70.837H18.8229L37.7648 21.99H37.7728C38.2481 20.7994 39.4111 19.9583 40.7704 19.9583C42.1297 19.9583 43.2926 20.7994 43.768 21.99H46.2918V12.0817H41.607L45.9675 0.837013H36.1992Z" fill="#213ED7"/>
<path d="M24.6079 8.77917C26.389 4.18622 30.6991 1.09619 35.5774 0.85255L35.5713 0.837013H45.6523C50.7838 0.837013 55.3882 3.99159 57.2448 8.77916L81.3095 70.837H62.7159L39.38 10.6588C38.044 7.70958 35.0765 5.65815 31.6302 5.65815C28.1755 5.65815 25.2019 7.71967 23.8706 10.6806L24.6079 8.77917Z" fill="#566DE8"/>
</svg>
