<?xml version="1.0" encoding="UTF-8"?>
<svg id="Layer_2" data-name="Layer 2" xmlns="http://www.w3.org/2000/svg" viewBox="0 0 2022.71 2678.57">
  <defs>
    <style>
      .cls-1 {
      fill: #3b78ff;
      }
    </style>
  </defs>
  <g id="Layer_1-2" data-name="Layer 1">
    <g>
      <path class="cls-1"
            d="m2022.71,824.96l-520.2,191.37c-69.29-153.43-186.32-280.68-332.2-362.58-113.67-63.97-244.84-100.37-384.41-100.37V0c225.81,0,438.45,55.86,624.92,154.69,274.24,144.75,492.06,382.03,611.9,670.27Z"/>
      <g>
        <path class="cls-1"
              d="m2022.71,1853.61c-119.83,288.24-337.66,525.52-611.9,670.27-186.47,98.83-399.11,154.69-624.92,154.69v-553.38c139.57,0,270.74-36.4,384.41-100.37,145.87-81.89,262.9-209.15,332.2-362.57l520.2,191.37Z"/>
        <path class="cls-1"
              d="m785.9,553.38v1571.81c-104.99,0-205.22-20.58-296.78-58.1C202.28,1950.06,0,1668.26,0,1339.28s202.28-610.78,489.12-727.81c91.55-37.52,191.79-58.09,296.78-58.09Z"/>
      </g>
    </g>
  </g>
</svg>