<svg id="logo" xmlns="http://www.w3.org/2000/svg" width="455px" height="127px" viewBox="0 0 600 160.3"><defs><style>.cls-1{fill:#333695;}.cls-2{fill:#00b5af;}</style></defs><path class="cls-1" d="M103.82,84H91.93V20.14h11.89Z"/><path class="cls-1" d="M151.21,84H139.5V57.32c0-6.21-4.26-8.88-8.7-8.88s-8.7,2.67-8.7,8.88V84H110.39V38.24H122.1v4c2-3.1,6.66-5.23,10.74-5.23,9.32,0,18.37,6.39,18.37,19.87Z"/><path class="cls-1" d="M180.76,73.47V84H169.49c-8.16,0-11.71-4.35-11.71-11.71V27.86h11.71V38.24h11.27V48.8H169.49v21c0,2.13.53,3.64,3.37,3.64Z"/><path class="cls-1" d="M196.2,64.24v.27c0,5.41,3.11,9,8.7,9,4.08,0,6.92-2,8.08-5.06h11.89C223,78,216.08,84,204.9,84c-13.13,0-20.41-8.34-20.41-21V57.14c0-12.69,7.28-21,20.41-21s20.41,8.34,20.41,21v7.1Zm0-9.76v.09h17.31v-.09c-.36-4.79-3.37-7.81-8.61-7.81S196.65,49.78,196.2,54.48Z"/><path class="cls-1" d="M243.77,84H232.06V38.24h11.71v5c1.33-3,5.24-5.77,10.65-5.77H258V48.89h-5.5c-4.44,0-8.7,2.66-8.7,8.87Z"/><path class="cls-1" d="M263.59,63.53h12.25c.71,5.24,4.79,8.7,10.74,8.7,5.23,0,8.87-2,8.87-6.21,0-3.47-2-5.42-6.39-6.57l-10.47-2.84c-9.5-2.58-14.2-9.23-14.2-18.37,0-12.43,9.76-18.11,20.59-18.11,12.42,0,20.14,7.28,21.47,17.84H294.21c-1.07-4.17-5.42-6-9.41-6-5,0-8.52,1.95-8.52,6.3,0,3.64,2.84,5.23,6.21,6.12l10.12,2.75c9.58,2.58,14.73,8.43,14.73,18.91,0,11.18-7.28,18-20.76,18S264.21,75.87,263.59,63.53Z"/><path class="cls-1" d="M335.72,88.11c-2.48,6.92-3.19,12-11.36,12h-8.69V89.53h4.88a2.82,2.82,0,0,0,3.1-2L325,83.76,308.66,38H321l10.21,29.2L341.4,38h12.34Z"/><path class="cls-1" d="M352.67,68.32h11.72c.53,3.55,4.7,5.15,8.52,5.15,2.31,0,5.77-.53,5.77-3.55,0-1.86-1.33-2.93-4.09-3.55L365,64.24c-5-1.15-11.27-5.06-11.27-14s8.08-14.11,17.48-14.11S388.17,40.55,389,50.93H377c-.62-2.93-3.19-4.26-6.12-4.26-3.38,0-5.33,1.33-5.42,3.46,0,1.95,1.6,2.93,3.55,3.37l10.3,2.31c5,1.15,11.09,4.61,11.09,14.11,0,10.21-8.25,14.11-17.84,14.11S353.12,79.15,352.67,68.32Z"/><path class="cls-1" d="M433.93,64.24v.27c0,5.41,3.11,9,8.7,9,4.08,0,6.92-2,8.07-5.06h11.9C460.73,78,453.81,84,442.63,84c-13.14,0-20.41-8.34-20.41-21V57.14c0-12.69,7.27-21,20.41-21S463,44.45,463,57.14v7.1Zm0-9.76v.09h17.31v-.09c-.36-4.79-3.38-7.81-8.61-7.81S434.37,49.78,433.93,54.48Z"/><path class="cls-1" d="M510.08,84H498.36V57.32c0-6.12-4.26-8.88-8.43-8.88s-8.43,2.76-8.43,8.88V84H469.78V38.24H481.5v3.81a13.13,13.13,0,0,1,10.38-5,14.74,14.74,0,0,1,12.34,6c3.28-4,8-6,14.29-6,11.62,0,20.14,6.47,20.14,19.87V84H526.94V57.32c0-6.12-4.26-8.88-8.43-8.88s-8.43,2.76-8.43,8.88Z"/><path class="cls-1" d="M543.09,68.32H554.8c.54,3.55,4.71,5.15,8.52,5.15,2.31,0,5.77-.53,5.77-3.55,0-1.86-1.33-2.93-4.08-3.55l-9.59-2.13c-5-1.15-11.27-5.06-11.27-14s8.08-14.11,17.49-14.11,17,4.44,17.75,14.82h-12c-.63-2.93-3.2-4.26-6.13-4.26-3.37,0-5.32,1.33-5.41,3.46,0,1.95,1.6,2.93,3.55,3.37l10.29,2.31c5,1.15,11.1,4.61,11.1,14.11C580.81,80.13,572.55,84,563,84S543.53,79.15,543.09,68.32Z"/><path class="cls-1" d="M417.26,73.47V84H406c-8.17,0-11.72-4.35-11.72-11.71V27.86H406V38.24h11.27V48.8H406v21c0,2.13.53,3.64,3.37,3.64Z"/><path class="cls-1" d="M592.7,36a7.31,7.31,0,1,1-7.31,7.3A7.3,7.3,0,0,1,592.7,36Zm0,13.31a6,6,0,1,0-6-6A6,6,0,0,0,592.7,49.29Zm3.53-1.77-2.15-3.65A2.21,2.21,0,0,0,596,41.5a2.34,2.34,0,0,0-2.63-2.45h-3.45v8.47h1.38V43.93h1.32l2.11,3.59Zm-5-7.1h2.07c.73,0,1.21.37,1.21,1.1s-.48,1.08-1.21,1.08h-2.07Z"/><polygon class="cls-1" points="20.12 22.5 0 12.43 0 140.17 40.24 160.3 40.24 137.8 20.12 127.74 20.12 22.5"/><polygon class="cls-2" points="40.24 137.8 60.36 147.88 60.36 20.13 20.12 0 20.12 22.5 40.24 32.56 40.24 137.8"/><path class="cls-1" d="M115.9,137.25c-.28,6.68-4.59,11.09-12,11.09-7.63,0-12-4.73-12-11.77v-9.18c0-7,4.37-11.77,12-11.77,7.41,0,11.72,4.4,12,11.09h-6.14c-.32-3.23-2.77-5-5.86-5-3.32,0-5.91,2-5.91,5.73v9.18c0,3.68,2.59,5.72,5.91,5.72,3.09,0,5.54-1.77,5.86-5Z"/><path class="cls-1" d="M125.12,147.88h-6V124.43h6V127c.68-1.55,2.68-3,5.46-3h1.81v5.87h-2.81a4.21,4.21,0,0,0-4.46,4.54Z"/><path class="cls-1" d="M139.82,138.2v.14c0,2.77,1.59,4.59,4.45,4.59a4.1,4.1,0,0,0,4.14-2.59h6.09c-1,4.91-4.5,8-10.23,8-6.72,0-10.45-4.28-10.45-10.77v-3c0-6.5,3.73-10.77,10.45-10.77s10.45,4.27,10.45,10.77v3.63Zm0-5v.05h8.86v-.05a4,4,0,0,0-4.41-4A4.13,4.13,0,0,0,139.82,133.2Z"/><path class="cls-1" d="M172.61,132.61a4.54,4.54,0,0,0-8.5-.82h-6c1-4.9,4.45-8,10.18-8,6.72,0,10.45,4.27,10.45,10.77v13.31h-6V145.2c-1.09,1.77-2.95,3.14-6.54,3.14-5.37,0-8.55-2.64-8.55-7,0-3.4,1.18-5.45,4.46-7,2.31-1.1,7-1.46,10.54-1.73Zm-9,8.09c0,1.14.87,2.37,3.55,2.37,3.09,0,5.54-1.73,5.54-4.69v-.77c-3.41.23-6.68.5-7.82,1.09A1.89,1.89,0,0,0,163.61,140.7Z"/><path class="cls-1" d="M196.18,142.47v5.41H190.4c-4.18,0-6-2.22-6-6v-12h-3.32v-5.41h3.32v-5.31h6v5.31h5.78v5.41H190.4v10.77c0,1.09.28,1.86,1.73,1.86Z"/><path class="cls-1" d="M205.47,121.39h-6v-5.32h6Zm0,26.49h-6V124.43h6Z"/><path class="cls-1" d="M224.69,124.43H231l-8.45,23.45h-6.18l-8.46-23.45h6.32l5.23,14.95Z"/><path class="cls-1" d="M237.53,138.2v.14c0,2.77,1.59,4.59,4.45,4.59a4.09,4.09,0,0,0,4.14-2.59h6.09c-1,4.91-4.5,8-10.23,8-6.72,0-10.45-4.28-10.45-10.77v-3c0-6.5,3.73-10.77,10.45-10.77s10.46,4.27,10.46,10.77v3.63Zm0-5v.05h8.86v-.05a4,4,0,0,0-4.41-4A4.13,4.13,0,0,0,237.53,133.2Z"/><path class="cls-1" d="M274.47,148.34c-4.77,0-9.4-3.28-9.4-10.18V134c0-6.91,4.63-10.18,9.4-10.18a7,7,0,0,1,5.5,2.68V116.07h6v31.81h-6v-2.22A7,7,0,0,1,274.47,148.34Zm-3.4-10.41a4.45,4.45,0,1,0,8.9,0V134.2a4.45,4.45,0,1,0-8.9,0Z"/><path class="cls-1" d="M304.22,132.61a4.54,4.54,0,0,0-8.5-.82h-6c.95-4.9,4.45-8,10.18-8,6.72,0,10.45,4.27,10.45,10.77v13.31h-6V145.2c-1.09,1.77-2.95,3.14-6.54,3.14-5.37,0-8.55-2.64-8.55-7,0-3.4,1.18-5.45,4.46-7,2.31-1.1,7-1.46,10.54-1.73Zm-9,8.09c0,1.14.87,2.37,3.55,2.37,3.09,0,5.54-1.73,5.54-4.69v-.77c-3.41.23-6.68.5-7.82,1.09A1.9,1.9,0,0,0,295.22,140.7Z"/><path class="cls-1" d="M327.43,142.47v5.41h-5.77c-4.18,0-6-2.22-6-6v-12h-3.32v-5.41h3.32v-5.31h6v5.31h5.77v5.41h-5.77v10.77c0,1.09.27,1.86,1.73,1.86Z"/><path class="cls-1" d="M344.54,132.61a4.54,4.54,0,0,0-8.5-.82H330c1-4.9,4.46-8,10.18-8,6.73,0,10.45,4.27,10.45,10.77v13.31h-6V145.2c-1.09,1.77-3,3.14-6.55,3.14-5.36,0-8.54-2.64-8.54-7,0-3.4,1.18-5.45,4.45-7,2.32-1.1,7-1.46,10.55-1.73Zm-9,8.09c0,1.14.86,2.37,3.54,2.37,3.09,0,5.55-1.73,5.55-4.69v-.77c-3.41.23-6.68.5-7.82,1.09A1.89,1.89,0,0,0,335.54,140.7Z"/><path class="cls-1" d="M376,142.47v5.41H370.2c-4.18,0-6-2.22-6-6v-12h-3.32v-5.41h3.32v-5.31h6v5.31H376v5.41H370.2v10.77c0,1.09.27,1.86,1.72,1.86Z"/><path class="cls-1" d="M384.36,138.2v.14c0,2.77,1.59,4.59,4.46,4.59a4.08,4.08,0,0,0,4.13-2.59H399c-1,4.91-4.5,8-10.22,8-6.73,0-10.46-4.28-10.46-10.77v-3c0-6.5,3.73-10.77,10.46-10.77s10.45,4.27,10.45,10.77v3.63Zm0-5v.05h8.86v-.05a4,4,0,0,0-4.4-4A4.14,4.14,0,0,0,384.36,133.2Z"/><path class="cls-1" d="M423.15,139.34c-.63,5.5-4.27,9-10.36,9-6.72,0-10.45-4.28-10.45-10.77v-3c0-6.5,3.73-10.77,10.45-10.77,6.09,0,9.73,3.5,10.36,9h-6a4.06,4.06,0,0,0-4.36-3.59c-2.86,0-4.45,1.82-4.45,4.59v4.55c0,2.77,1.59,4.59,4.45,4.59a4,4,0,0,0,4.36-3.59Z"/><path class="cls-1" d="M447.55,147.88h-6V134.2a4.46,4.46,0,1,0-8.91,0v13.68h-6V116.07h6v10.41a7,7,0,0,1,5.5-2.68c4.77,0,9.41,3.27,9.41,10.18Z"/><path class="cls-1" d="M472.55,147.88h-6V134.2a4.46,4.46,0,1,0-8.91,0v13.68h-6V124.43h6v2a7,7,0,0,1,5.5-2.68c4.77,0,9.41,3.27,9.41,10.18Z"/><path class="cls-1" d="M476.14,134.57c0-6.5,3.72-10.77,10.45-10.77S497,128.07,497,134.57v3c0,6.49-3.72,10.77-10.45,10.77s-10.45-4.28-10.45-10.77Zm14.9-.78c0-2.77-1.59-4.59-4.45-4.59s-4.45,1.82-4.45,4.59v4.55c0,2.77,1.59,4.59,4.45,4.59s4.45-1.82,4.45-4.59Z"/><path class="cls-1" d="M509.32,142.47v5.41h-2.91c-4.18,0-6-2.22-6-6V116.07h6v24.54c0,1.09.27,1.86,1.72,1.86Z"/><path class="cls-1" d="M511.27,134.57c0-6.5,3.73-10.77,10.45-10.77s10.45,4.27,10.45,10.77v3c0,6.49-3.72,10.77-10.45,10.77s-10.45-4.28-10.45-10.77Zm14.91-.78c0-2.77-1.59-4.59-4.46-4.59s-4.45,1.82-4.45,4.59v4.55c0,2.77,1.59,4.59,4.45,4.59s4.46-1.82,4.46-4.59Z"/><path class="cls-1" d="M541.22,148a4,4,0,0,0,4.32,3.27c2.86,0,4.45-1.82,4.45-4.59V144a7,7,0,0,1-5.5,2.69c-4.77,0-9.4-3.28-9.4-10.18V134c0-6.91,4.63-10.18,9.4-10.18a7,7,0,0,1,5.5,2.68v-2h6v21.5c0,6.5-3.73,10.77-10.45,10.77-5.95,0-9.59-3.36-10.32-8.68Zm-.14-11.77a4.46,4.46,0,1,0,8.91,0V134.2a4.46,4.46,0,1,0-8.91,0Z"/><path class="cls-1" d="M571.58,150.11c-1.27,3.54-1.64,6.13-5.82,6.13h-4.45v-5.4h2.5a1.45,1.45,0,0,0,1.59-1.05l.68-1.91-8.36-23.45H564l5.22,14.95,5.23-14.95h6.32Z"/></svg>