<svg width="599" height="149" viewBox="0 0 599 149" fill="none" xmlns="http://www.w3.org/2000/svg">
<path d="M561.262 33.7983C568.525 33.7983 574.933 35.6678 580.486 39.4057C586.039 43.0368 590.365 48.1633 593.462 54.7846C596.559 61.2991 598.107 68.7212 598.107 77.0512C598.107 85.2746 596.399 92.6974 592.981 99.3188C589.564 105.833 584.811 110.959 578.723 114.697C572.743 118.328 566.068 120.144 558.699 120.144C553.466 120.144 548.607 119.022 544.122 116.78C539.636 114.537 535.952 111.333 533.068 107.168V139.688L540.918 147.217V148.498H516.088V147.217L521.694 139.688V46.6147L516.088 38.7651V37.643L533.068 34.6V52.2211C535.524 46.4542 539.316 41.969 544.442 38.7651C549.568 35.4544 555.175 33.7983 561.262 33.7983ZM501.731 110.051L507.338 117.26V118.541H490.197V101.561C487.741 107.221 484.056 111.761 479.143 115.178C474.338 118.489 468.944 120.144 462.964 120.144C457.517 120.144 452.658 119.022 448.387 116.78C444.222 114.537 440.964 111.333 438.614 107.168C436.265 102.897 435.09 97.8234 435.09 91.9496V46.2934L429.483 38.9252V37.643L446.464 34.6V90.5073C446.464 95.0995 447.265 98.9444 448.867 102.041C450.469 105.138 452.658 107.435 455.434 108.93C458.318 110.425 461.629 111.173 465.367 111.173C469.318 111.173 473.003 110.212 476.421 108.289C479.838 106.367 482.722 103.59 485.071 99.9594C487.527 96.3284 489.236 92.1098 490.197 87.3041V46.2934L484.591 38.9252V37.643L501.731 34.6V110.051ZM216.811 110.051L222.419 117.26V118.541H199.831V117.26L205.437 110.051V12.6528L199.831 4.80316V3.68207L216.811 0.638123V110.051ZM248.974 110.051L254.581 117.26V118.541H231.994V117.26L237.6 110.051V46.6147L231.994 38.9252V37.643L248.974 34.6V110.051ZM308.519 33.7983C313.966 33.7983 318.772 34.9198 322.937 37.1625C327.209 39.4053 330.519 42.6631 332.869 46.935C335.218 51.1 336.393 56.119 336.393 61.9926V110.051L342.001 117.26V118.541H319.413V117.26L325.019 110.051V63.435C325.019 58.9496 324.219 55.1581 322.617 52.061C321.122 48.9639 318.932 46.6675 316.049 45.1723C313.165 43.5705 309.855 42.77 306.117 42.77C302.166 42.77 298.481 43.7305 295.063 45.6528C291.646 47.5751 288.709 50.3519 286.253 53.9828C283.903 57.6139 282.195 61.8332 281.127 66.6391V110.051L286.733 117.26V118.541H264.145V117.26L269.753 110.051V46.6147L264.145 38.7651V37.643L281.127 34.6V52.3813C283.69 46.6145 287.374 42.0757 292.179 38.7651C296.985 35.4544 302.432 33.7983 308.519 33.7983ZM367.395 74.2875L400.395 44.2114V36.6821L400.716 35.4008H424.585V36.6821L412.73 44.3715L388.379 65.7748L420.58 110.051L430.031 117.26V118.541H404.72L404.56 117.26L406.483 110.211L379.884 73.2426L367.395 84.2202V110.051L373.002 117.26V118.541H350.415V117.26L356.021 110.051V12.6528L350.415 4.80316V3.68207L367.395 0.638123V74.2875ZM56.6892 2.61664C67.8582 2.61684 77.1793 7.71825 84.781 15.5776C88.0682 18.9762 91.0588 22.9132 93.7762 27.228C104.401 23.0473 114.967 21.6447 124.191 25.4291C132.889 28.9978 137.887 35.3697 140.054 43.1752C142.17 50.7958 141.558 59.6258 139.565 68.4243C138.865 71.517 137.982 74.6474 136.964 77.7709C140.968 77.475 144.695 77.3371 148.064 77.3862C153.176 77.4607 157.696 77.9636 161.164 79.1215C167.622 81.2779 169.695 89.2321 165 94.2309C161.907 97.5235 156.626 101.198 148.791 105.166C140.901 109.163 130.214 113.559 116.117 118.211C115.106 118.545 113.998 118.394 113.112 117.804C112.226 117.214 111.66 116.249 111.579 115.187C110.998 107.603 109.851 98.4217 108.034 88.6684C101.345 89.8782 94.3795 91.2986 87.324 92.8745C55.8356 99.9074 22.9587 109.956 5.17557 118.073C4.08854 118.569 2.82227 118.47 1.82596 117.81C0.829922 117.15 0.244053 116.024 0.276157 114.83C0.772462 96.4671 4.03991 68.863 12.3181 45.7289C16.4554 34.1672 21.9264 23.4861 29.1238 15.643C36.3817 7.73412 45.5029 2.61664 56.6892 2.61664ZM559.341 42.4487C554.749 42.4487 550.583 43.517 546.845 45.6528C543.108 47.7887 540.01 50.8331 537.554 54.7846C535.097 58.6292 533.602 63.1146 533.068 68.2407V90.3471C534.029 94.9392 535.631 98.9977 537.874 102.522C540.223 105.939 543.107 108.556 546.524 110.372C549.942 112.187 553.733 113.095 557.898 113.095C563.345 113.095 568.151 111.547 572.316 108.45C576.588 105.353 579.898 101.081 582.248 95.6342C584.597 90.0808 585.772 83.8862 585.772 77.0512C585.772 70.5367 584.651 64.6631 582.408 59.4301C580.272 54.0903 577.175 49.9253 573.117 46.935C569.166 43.9448 564.574 42.4487 559.341 42.4487ZM147.964 84.311C144.016 84.2534 139.449 84.4717 134.394 84.9321C131.093 93.3925 127.004 101.551 123.008 108.51C132.451 105.105 139.9 101.906 145.662 98.9877C153.21 95.1643 157.665 91.9229 159.951 89.4887C161.153 88.2085 160.683 86.2636 158.97 85.6918C156.5 84.8669 152.811 84.3817 147.964 84.311ZM90.8767 36.0629C79.0105 41.8035 66.4133 51.1487 54.5779 61.6791C42.7679 72.187 31.85 83.7561 23.3435 93.8168C19.0142 98.9372 15.3651 103.601 12.5555 107.494C31.6856 100.097 59.3515 92.0253 85.8152 86.1147C92.8961 84.5332 99.912 83.1017 106.676 81.8764C104.262 70.5887 100.959 58.8674 96.614 48.2026C94.8697 43.9207 92.969 39.8413 90.9099 36.0473C90.899 36.0526 90.8877 36.0576 90.8767 36.0629ZM126.578 85.7866C122.836 86.257 118.914 86.83 114.86 87.4926C115.953 93.3716 116.806 99.0394 117.445 104.287C120.624 98.6872 123.825 92.3537 126.578 85.7866ZM56.6892 9.5434C47.8723 9.5434 40.4941 13.4956 34.2264 20.3256C27.8981 27.2216 22.8156 36.9493 18.8387 48.0629C12.6329 65.4054 9.31837 85.5515 7.93241 102.08C10.7521 98.2536 14.181 93.9263 18.0545 89.3452C26.7384 79.0745 37.8832 67.2624 49.9744 56.5043C61.8852 45.9068 74.8448 36.2142 87.3719 30.0668C85.0284 26.4456 82.5071 23.1883 79.8025 20.392C73.1486 13.5127 65.5231 9.5436 56.6892 9.5434ZM121.562 31.8364C114.875 29.0928 106.622 29.7877 97.2937 33.2944C99.3877 37.2059 101.295 41.3362 103.028 45.5893C107.579 56.7612 111.013 68.9793 113.506 80.6957C119.071 79.7827 124.41 79.0313 129.409 78.476C130.782 74.5991 131.947 70.7055 132.81 66.894C134.682 58.6311 135.063 51.0858 133.382 45.0278C131.751 39.1546 128.161 34.5434 121.562 31.8364ZM243.048 4.00238C245.397 4.00248 247.373 4.80385 248.974 6.4057C250.683 8.00761 251.538 9.98303 251.538 12.3325C251.538 14.6819 250.683 16.6573 248.974 18.2592C247.373 19.8611 245.397 20.6624 243.048 20.6625C240.591 20.6625 238.562 19.8612 236.96 18.2592C235.465 16.6573 234.717 14.6819 234.717 12.3325C234.717 9.98306 235.465 8.0076 236.96 6.4057C238.562 4.80375 240.591 4.00238 243.048 4.00238Z" fill="black"/>
</svg>
