<svg width="24" height="24" viewBox="0 0 24 24" fill="none" xmlns="http://www.w3.org/2000/svg">
<path fill-rule="evenodd" clip-rule="evenodd" d="M12 4.28792L18.3807 7.83278L12.0004 11.8205L5.62556 7.82928L12 4.28792ZM5 15.8232V9.79727L11 13.5538V19.1565L5 15.8232ZM13 19.1565L19 15.8232L19 9.80424L13 13.5542V19.1565ZM12.9713 2.5396L19.9713 6.42849C20.6062 6.78123 21 7.45047 21 8.17681V15.8232C21 16.5495 20.6062 17.2188 19.9713 17.5715L12.9713 21.4604C12.3672 21.796 11.6328 21.796 11.0287 21.4604L4.02871 17.5715C3.39378 17.2188 3 16.5495 3 15.8232V8.17681C3 7.45047 3.39378 6.78123 4.02871 6.42849L11.0287 2.5396C11.6328 2.20402 12.3672 2.20402 12.9713 2.5396Z" fill="white"/>
</svg>
