<svg xmlns="http://www.w3.org/2000/svg" viewBox="0 0 160 160" width="48" height="48">
  <rect width="160" height="160" rx="24" fill="#000000"/>
  <polygon points="19,45 80,10 80,45 50,63" fill="#ffffff" stroke="#000000" stroke-width="1"/>
  <polygon points="80,10 141,45 110,63 80,45" fill="#ffffff" stroke="#000000" stroke-width="1"/>
  <polygon points="141,45 141,115 110,98 110,63" fill="#ffffff" stroke="#000000" stroke-width="1"/>
  <polygon points="141,115 80,150 80,115 110,98" fill="#ffffff" stroke="#000000" stroke-width="1"/>
  <polygon points="80,150 19,115 50,98 80,115" fill="#ffffff" stroke="#000000" stroke-width="1"/>
  <polygon points="19,115 19,45 50,63 50,98" fill="#ffffff" stroke="#000000" stroke-width="1"/>
  <polygon points="80,45 110,63 110,98 80,115 50,98 50,63" fill="#ffffff" stroke="#000000" stroke-width="1"/>
  <line x1="80" y1="80" x2="50" y2="63" stroke="#000000" stroke-width="1"/>
  <line x1="80" y1="80" x2="110" y2="63" stroke="#000000" stroke-width="1"/>
  <line x1="80" y1="80" x2="80" y2="115" stroke="#000000" stroke-width="1"/>
</svg>
