<?xml version="1.0" encoding="UTF-8"?>
<svg id="Layer_1" xmlns="http://www.w3.org/2000/svg" version="1.1" viewBox="0 0 1561.7 1991.2">
  <!-- Generator: Adobe Illustrator 29.8.2, SVG Export Plug-In . SVG Version: 2.1.1 Build 3)  -->
  <defs>
    <style>
      .st0 {
        fill: none;
      }

      .st1 {
        fill: #f8f8f9;
      }

      .st2 {
        fill: #101075;
      }
    </style>
  </defs>
  <g>
    <path class="st0" d="M1023.2,1699c-60.2,0-102.4,48-102.4,113.1s42.2,113.1,102.4,113.1,101.9-48.5,101.9-113.1-41.7-113.1-101.9-113.1Z"/>
    <path class="st0" d="M232.9,1751.4c0-26.5-18.5-46-51-46h-104.4v92.5h104.4c32.5,0,51-20,51-46.5Z"/>
    <path class="st0" d="M586.5,1751.4c0-26.5-18.5-46-51-46h-104.4v92.5h104.4c32.5,0,51-20,51-46.5Z"/>
    <path class="st0" d="M1476.6,1751.4c0-26.5-18.5-46-51-46h-104.4v92.5h104.4c32.5,0,51-20,51-46.5Z"/>
    <rect class="st1" x="721.5" y="1637.5" width="77.5" height="348.5"/>
    <rect class="st1" x="1243.7" y="1865.9" width="77.5" height="120.1"/>
    <path class="st1" d="M665.4,1751.5c0-61.9-45.5-113.9-117.4-113.9h0c0,0-194.4,0-194.4,0v160.4h77.5v-92.5h104.4c32.5,0,51,19.5,51,46s-18.5,46.5-51,46.5h-104.4v68h-77.4v120.1h77.5v-120.1h85.3l66.5,120h88.6l-72.2-130.3c41.5-18.3,66-58.6,66-104.1Z"/>
    <polygon class="st2" points="1023.7 1991.2 1023.7 1991.2 1023.7 1991.2 1023.7 1991.2"/>
    <path class="st1" d="M194.4,1637.6h0c0,0-194.5,0-194.5,0v160.4h77.5v-92.5h104.4c32.5,0,51,19.5,51,46s-18.5,46.5-51,46.5h-104.4v68h116.9c72,0,117.4-52.5,117.4-114.4s-45.5-113.9-117.4-113.9Z"/>
    <path class="st1" d="M1561.6,1985.9l-72.2-130.3c41.6-18.2,66.1-58.6,66.1-104.1s-45.5-113.9-117.4-113.9h0c0,0-194.4,0-194.4,0v160.4h77.5v-92.5h104.4c32.5,0,51,19.5,51,46s-18.5,46.5-51,46.5h-104.4v68h85.3l66.5,120h88.6Z"/>
    <path class="st1" d="M1023.7,1633.5c-102.4,0-179.6,76.2-179.6,178.6s75.7,179.1,179.6,179.1,178.1-75.7,178.1-179.1-75.7-178.6-178.1-178.6ZM1023.2,1925.2c-60.2,0-102.4-48-102.4-113.1s42.2-113.1,102.4-113.1,101.9,48.5,101.9,113.1-42.7,113.1-101.9,113.1Z"/>
    <rect class="st1" y="1865.9" width="77.5" height="120.1"/>
  </g>
  <path class="st1" d="M1416.7,0H145C65,0,0,65,0,145v1271.7c0,80,65,145,145,145h1271.7c80,0,145-65,145-145V145c0-80-65-145-145-145ZM1050.5,850.5c90.1,30.3,222.8,56.4,463.8,67.1v57.4c-252.7-20.5-380-69.4-463.8-124.5ZM1514.3,996.7v58.6c-232.7-28.5-355.1-90.8-435-162.2,86.2,46.6,213.8,85.9,435,103.6ZM1027.5,813.9c93.7,10,231.6,19.7,486.8,23.4v57.9c-166.7-6.6-335.4-25.8-486.8-81.3h0ZM993.5,783.1c97.8-13.9,240.1-23.9,520.8-27.1v54.5c-289.6-4.2-427.3-16.2-520.8-27.4h0ZM973,756.5c102.3-40.8,247.6-73.6,541.3-82.9v53.1c-298.5,3.4-441.9,14.6-541.3,29.8h0ZM963.9,725.7c106.1-66.1,256.7-120.9,550.4-135.2v51.1c-297,9.4-445.5,42.5-550.4,84h0ZM960.6,687.1c110.1-89.9,264.1-163.5,553.7-180.5v49.4c-289.8,13.8-444.7,66.5-553.7,131.1h0ZM964,636.9c34.8-33.8,73.5-65.5,118.3-93.4,112.7-70.2,254.7-110.1,432-121.3v47.3c-279.5,15.9-437.4,82.9-550.3,167.4h0ZM975.4,572.6c29.1-31.3,60.7-60.7,95.9-87.3,116.6-88.1,262.1-136.7,443-147.7v44.8c-264.3,16-423.4,91.6-538.9,190.1h0ZM985.9,501.8c23.1-26.7,47.5-52,73.9-75.5,120.8-107.2,269.9-164.3,454.5-173.8v42.7c-251.6,14.6-410.7,96.4-528.4,206.6ZM999.8,420.6c15.5-18.7,31.5-36.7,48.3-53.8,127-129.2,275.8-193,466.2-199.3v40.1c-237.9,11.6-395.6,95.6-514.5,213h0ZM145,47.4h1271.7c45.3,0,83.4,31,94.4,72.9-370.5,13.2-552,235.2-695.1,490.6v.4c-70-40.4-169.5-66.6-328.1-66.6H47.4V145c0-53.8,43.8-97.6,97.6-97.6ZM194.7,1300c-44.2,8.6-91,13-139.1,13h-8.2v-34.6h40.1c48.9,0,97.3-4.2,144-12.4,71.4-12.3,133.2-32.6,187.7-58.8-62.7,43.3-135.8,75.7-224.5,92.8h0ZM356.5,1294.5c-83.2,56.2-183.2,91.1-309.1,95v-31.7h8.2c51,0,100.7-4.7,147.6-13.8,56.6-10.9,107.3-27.9,153.3-49.5ZM224.2,1224.5c-44.9,7.9-89.6,11.7-136.7,11.7h-40.1v-37.2h72c46.8,0,92.7-3.6,140.4-11,88.7-13.7,162.1-37.1,224.6-67.2-69.5,48.6-153.2,85.2-260.2,103.7h0ZM253.7,1148.9c-45.7,7.1-89.6,10.5-134.3,10.5H47.4v-39.8h103.9c44.5,0,89.2-3.1,136.8-9.5,106.2-14.3,189.9-39.1,258.7-70.5-74.5,50.8-167.3,89.9-293.1,109.3h0ZM283.2,1073.3c-45.9,6.2-89.1,9.2-131.9,9.2H47.4v-42.3h135.8c42.1,0,85.7-2.7,133.3-8.2,127.8-14.8,221.9-39.6,296.2-70.1-79,51.1-180.5,91.3-329.5,111.4ZM312.4,997.8c-46.2,5.3-88.5,7.9-129.4,7.9H47.4v-44.9h167.7c39.9,0,82.3-2.2,129.8-6.8,145.7-14,245.9-34.7,322.4-58.6-.7,1.3-1.4,2.6-2.1,3.9-80.5,43.7-186.2,79.3-352.8,98.5h0ZM342,922.3c-46.5,4.5-88,6.6-126.8,6.6H47.4v-47.4h199.7c37.6,0,78.9-1.8,126.4-5.4,148.1-11.3,247.6-23.3,322.4-35.2-2.4,4.6-4.8,9.2-7.1,13.8-78.4,27.7-183.2,51.9-346.8,67.6h0ZM371.1,846.9c-46.7,3.6-87.4,5.3-124.2,5.3H47.4v-50.1h231.6c35.8,0,74.9-1.3,123-4,149.8-8.6,248.5-11.6,321.4-11-.6,1.1-1.2,2.3-1.8,3.4-3.1,6-6.1,12-9.2,18-76.4,12.9-179.5,26-341.3,38.4h0ZM400.5,771.3c-47.6,2.7-86.2,4-121.5,4H47.4v-52.6h263.5c35.2,0,74.3-.9,119.7-2.7,151.3-5.5,249,.8,320.1,14-4.5,8.8-9.1,17.6-13.6,26.4-74.8-1.1-176.9,1.8-336.6,10.9h0ZM429.6,695.8c-45.1,1.8-84,2.7-118.8,2.7H47.4v-55.3h295.4c33.1,0,71.2-.4,116.4-1.3,153.5-2.8,250.2,12.6,319.3,38.6-5.5,10.3-10.9,20.6-16.3,31-73.2-14.4-174.3-21.5-332.6-15.7ZM458.8,620.3c-45.1.9-83.1,1.3-116,1.3H47.4v-57.8h440.5c155.6,0,251.6,24.8,319.1,63.9-6.1,11.1-12.1,22.2-18.1,33.3-71.4-27.3-171.3-43.6-330.1-40.7h0ZM1416.7,1514.3H145c-46.9,0-86.2-33.3-95.5-77.5,291.8-9.3,455.4-176.2,582.1-382.3,83-112.5,224.3-354.5,378.1-206.1,81,96.9,202.4,189.6,504.6,226.1v342.2c0,53.8-43.8,97.6-97.6,97.6h0Z"/>
</svg>