<svg width="48" height="48" viewBox="0 0 48 48" fill="none" xmlns="http://www.w3.org/2000/svg">
<rect width="48" height="48" rx="8" fill="#ffffff"/>
<g transform="translate(24,24) scale(1.4) translate(-24,-24)">
<path d="M12 34.8563V13.2H18.1619V15.5693H14.9659V32.4955H18.1619V34.8563H12ZM26.2421 31.3364C25.7251 31.3364 25.2819 31.1545 24.9126 30.7909C24.5433 30.4273 24.3615 29.9841 24.3671 29.4614C24.3615 28.95 24.5433 28.5125 24.9126 28.1489C25.2819 27.7852 25.7251 27.6034 26.2421 27.6034C26.7421 27.6034 27.1768 27.7852 27.5461 28.1489C27.9211 28.5125 28.1115 28.95 28.1171 29.4614C28.1115 29.808 28.0206 30.1233 27.8444 30.4074C27.674 30.6915 27.4467 30.9188 27.1626 31.0892C26.8842 31.254 26.5774 31.3364 26.2421 31.3364ZM35.5184 13.2V34.8563H29.3565V32.4955H32.5525V15.5693H29.3565V13.2H35.5184Z" fill="#151519"/>
</g>
</svg>
