<?xml version="1.0" encoding="UTF-8" standalone="no"?>
<svg
   id="Ebene_1"
   data-name="Ebene 1"
   viewBox="0 0 1383.6066 228.21246"
   version="1.1"
   width="1383.6066"
   height="228.21246"
   xmlns="http://www.w3.org/2000/svg"
   xmlns:svg="http://www.w3.org/2000/svg">
  <defs
     id="defs4">
    <style
       id="style2">
      .cls-1 {
        fill: #004e5a;
        stroke-width: 0px;
      }
    </style>
  </defs>
  <g
     id="g20"
     transform="translate(-307.72131,-260.45114)">
    <polygon
       class="cls-1"
       points="894.11975,463.1077 916.97266,463.1077 916.97266,340.67049 965.10835,340.67049 965.10835,319.15327 845.79489,319.15327 845.79489,340.67049 894.11975,340.67049 "
       id="polygon6" />
    <polygon
       class="cls-1"
       points="1340.6636,382.67493 1335.0224,391.38721 1340.6321,399.77098 1380.3972,463.10657 1407.387,463.10657 1361.4695,390.66151 1404.6801,319.15214 1378.0777,319.15214 "
       id="polygon8" />
    <rect
       class="cls-1"
       x="1484.3456"
       y="319.15326"
       width="22.852913"
       height="143.95442"
       id="rect10" />
    <path
       class="cls-1"
       d="M 1050.5253,319.15327 997.69425,463.1077 h 24.28295 l 16.4595,-46.0926 3.7721,-11.31921 17.9616,-48.72711 c 0.2523,-0.69839 0.5202,-1.46856 0.8017,-2.30967 0.2793,0.83858 0.545,1.60621 0.7972,2.29897 l 38.2113,106.14962 h 24.2649 l -52.831,-143.95443 z"
       id="path12" />
    <path
       class="cls-1"
       d="m 758.78583,380.0787 -0.005,-0.001 c -14.81116,-6.26271 -26.50785,-11.20914 -26.50785,-22.66065 0,-8.98223 8.76464,-18.27355 23.43167,-18.27355 15.19624,0 25.96287,10.01701 26.0597,10.10737 l 4.42511,4.25593 11.45798,-19.54675 -2.56273,-2.64212 c -0.57425,-0.59085 -14.33599,-14.45647 -39.38006,-14.45647 -26.17005,0 -46.66741,17.98277 -46.66741,40.93955 0,25.08404 21.65486,34.42772 39.05803,41.93491 15.63537,6.74632 27.98513,12.0739 27.98513,24.91768 0,10.87248 -9.00785,18.46497 -21.90483,18.46497 -18.6395,0 -31.52522,-13.08644 -31.64233,-13.20692 l -3.88463,-4.07633 -13.7122,17.72998 2.63029,3.00102 c 0.67559,0.76905 16.91224,18.83288 46.22828,18.83288 26.80286,0 45.52342,-16.91252 45.52342,-41.12815 0,-27.05141 -22.47458,-36.55498 -40.53307,-44.19194 z m -1.04491,2.47068 v 0 -2.8e-4 z"
       id="path14" />
    <polygon
       class="cls-1"
       points="1620.337,340.67049 1620.337,463.1077 1643.1922,463.1077 1643.1922,340.67049 1691.3279,340.67049 1691.3279,319.15327 1572.0144,319.15327 1572.0144,340.67049 "
       id="polygon16" />
    <path
       class="cls-1"
       d="m 1228.5677,338.76195 c 22.5241,0 36.9592,13.4307 37.101,13.56441 l 3.9883,3.83931 12.5164,-17.45636 -2.6844,-2.92896 c -1.8196,-1.93725 -18.7273,-18.92999 -51.3087,-18.92999 -39.3958,0 -69.3401,29.52406 -71.2971,69.29597 h -0.1892 v 3.54853 c 0,0.0963 0.014,0.18804 0.014,0.28431 0,0.0963 -0.014,0.18804 -0.014,0.28431 v 3.54853 h 0.1892 c 1.957,39.7719 31.9013,69.29569 71.2971,69.29569 32.5521,0 49.4846,-16.98993 51.3312,-18.95336 l 2.6619,-2.90559 -12.5187,-17.4589 -3.9837,3.841 c -0.1441,0.13484 -14.5792,13.56554 -37.1033,13.56554 -27.6947,0 -48.5839,-22.01068 -48.6379,-51.21778 0.054,-29.2057 20.9432,-51.21666 48.6379,-51.21666 z"
       id="path18" />
  </g>
  <polygon
     class="cls-1"
     points="428.98036,390.58774 443.92283,320.58015 604.75782,320.58015 617.58608,260.45114 387.32243,260.45114 359.5517,390.58774 "
     id="polygon22"
     transform="translate(-307.72131,-260.45114)" />
  <polygon
     class="cls-1"
     points="320.5459,428.53461 307.72131,488.66361 538.51627,488.66361 566.37494,358.12395 496.94629,358.12395 481.91953,428.53461 "
     id="polygon24"
     transform="translate(-307.72131,-260.45114)" />
</svg>
