<svg xmlns="http://www.w3.org/2000/svg" width="2159" height="560" fill="none">
  <path fill="#909090"
    d="M0 0h100v100H0zm115 0h100v100H115zm115 0h100v100H230zm115 0h100v100H345zm115 0h100v100H460zM230 115h100v100H230zm0 115h100v100H230zm0 115h100v100H230zm0 115h100v100H230zM1181 0h100v100h-100z" />
  <path fill="#909090"
    d="M1181 0h100v100h-100zm115 0h100v100h-100zm115 0h100v100h-100zm-115 230h100v100h-100zm115 0h100v100h-100zM1526 0h100v100h-100z" />
  <path fill="#909090" d="M1526 0h100v100h-100zm-345 460h100v100h-100z" />
  <path fill="#909090" d="M1181 460h100v100h-100zm0-345h100v100h-100zm0 115h100v100h-100zM1526 0h100v100h-100z" />
  <path fill="#909090"
    d="M1526 0h100v100h-100zm0 115h100v100h-100zm0 115h100v100h-100zm-345 115h100v100h-100zm0 115h100v100h-100zM763 0h100v100H763zm115 0h100v100H878zm115 0h100v100H993zM648 0h100v100H648zm0 115h100v100H648zm0 115h100v100H648zm0 115h100v100H648zm0 115h100v100H648z" />
  <path fill="#909090"
    d="M993 0h100v100H993zM763 460h100v100H763zm115 0h100v100H878zm115 0h100v100H993zm-345 0h100v100H648z" />
  <path fill="#909090" d="M993 460h100v100H993zm0-345h100v100H993zm0 115h100v100H993zm0 115h100v100H993z" />
  <path fill="#909090" d="M993 460h100v100H993zm0-460h100v100H993z" />
  <path fill="#909090" d="M993 0h100v100H993zm0 460h100v100H993z" />
  <path fill="#909090" d="M993 460h100v100H993zm0-345h100v100H993zm0 115h100v100H993zm0 115h100v100H993z" />
  <path fill="#909090" d="M993 460h100v100H993z" />
  <path fill="#FE5000"
    d="M1714 0h100v100h-100zm0 115h100v100h-100zm0 115h100v100h-100zm230-115h100v100h-100zm-115 115h100v100h-100zM2059 0h100v100h-100z" />
  <path fill="#FE5000"
    d="M2059 0h100v100h-100zm-115 345h100v100h-100zm115 115h100v100h-100zm-345-115h100v100h-100zm0 115h100v100h-100z" />
  <path fill="#FE5000" d="M2059 460h100v100h-100z" />
</svg>