<svg xmlns="http://www.w3.org/2000/svg" viewBox="0 0 32 32"><style>rect{fill:#4c2626}path{fill:#f5f3f0}@media(prefers-color-scheme:light){rect{fill:#f5f3f0}path{fill:#4c2626}}</style><rect width="32" height="32" rx="7"/><path d="M3.21 0L-0.46 0Q-0.66 0-0.73-0.08Q-0.79-0.15-0.79-0.24L-0.79-0.24Q-0.79-0.48-0.40-0.55L-0.40-0.55L-0.04-0.62Q0.70-0.75 1.19-1.04Q1.67-1.34 2.09-2.00L2.09-2.00L5.50-7.24Q5.68-7.50 5.76-7.75Q5.85-8.01 5.76-8.43L5.76-8.43L4.49-14.37Q4.40-14.87 4.18-15.05Q3.96-15.22 3.67-15.27L3.67-15.27L3.28-15.33Q2.93-15.40 2.99-15.62L2.99-15.62Q3.04-15.84 3.41-15.84L3.41-15.84L7.22-15.84Q7.61-15.84 7.57-15.62L7.57-15.62Q7.50-15.40 7.13-15.33L7.13-15.33L6.69-15.27Q6.29-15.20 6.12-15.00Q5.94-14.81 6.03-14.37L6.03-14.37L7.08-9.57Q7.11-9.48 7.18-9.46Q7.26-9.44 7.35-9.55L7.35-9.55L10.36-14.15Q10.67-14.63 10.68-14.86Q10.69-15.09 10.30-15.18L10.30-15.18L9.72-15.31Q9.35-15.40 9.42-15.62L9.42-15.62Q9.46-15.84 9.86-15.84L9.86-15.84L13.27-15.84Q13.68-15.84 13.60-15.58L13.60-15.58Q13.55-15.36 13.20-15.29L13.20-15.29L12.85-15.22Q12.28-15.11 11.82-14.81Q11.37-14.50 10.93-13.84L10.93-13.84L7.72-8.95Q7.52-8.67 7.46-8.37Q7.39-8.07 7.50-7.57L7.50-7.57L8.82-1.47Q8.93-0.95 9.16-0.79Q9.39-0.64 9.64-0.59L9.64-0.59L10.05-0.53Q10.34-0.51 10.34-0.26L10.34-0.26Q10.34 0 9.90 0L9.90 0L6.05 0Q5.72 0 5.72-0.24L5.72-0.24Q5.72-0.46 6.14-0.53L6.14-0.53L6.58-0.59Q6.97-0.66 7.17-0.86Q7.37-1.06 7.28-1.47L7.28-1.47L6.16-6.62Q6.14-6.75 6.05-6.76Q5.96-6.78 5.87-6.67L5.87-6.67L2.68-1.69Q2.38-1.21 2.36-0.98Q2.35-0.75 2.75-0.66L2.75-0.66L3.34-0.53Q3.63-0.46 3.63-0.26L3.63-0.26Q3.63 0 3.21 0L3.21 0Z" transform="translate(7.0,27.1) scale(1.4)"/></svg>
